<svg xmlns="http://www.w3.org/2000/svg" version="1.1" viewBox="-5.0 -10.0 110.0 135.0">
 <path d="m53.254 53.316c4.3867-4.3867 6.8047-10.227 6.8047-16.441s-2.4141-12.082-6.8047-16.473c-4.0078-4.0078-9.2109-6.3555-14.789-6.7578v-0.082031h-3.3672v0.082031c-5.0234 0.35938-9.7266 2.3125-13.539 5.625l-0.054688-0.054687-1.1914 1.1914-1.1953 1.1914 0.058593 0.058594c-3.6562 4.2227-5.6719 9.5547-5.6719 15.223 0 5.668 2.0156 10.969 5.6719 15.191l-0.054687 0.054688 1.1797 1.1953s0.023438 0.023438 0.035157 0.03125l1.1602 1.1602 0.054687-0.054688c3.793 3.3086 8.4961 5.2617 13.543 5.6172v0.082031h3.3672v-0.082031c5.6133-0.39844 10.816-2.7461 14.789-6.7578zm-7.9219-25.008c2.2852 2.3164 3.5469 5.3594 3.5469 8.5664s-1.2578 6.2461-3.5391 8.5273c-4.5625 4.5547-12.551 4.5625-17.117 0-2.2773-2.2812-3.5391-5.3086-3.5391-8.5273s1.2578-6.25 3.5391-8.5586c2.2812-2.2773 5.3203-3.5391 8.5547-3.5391s6.2773 1.2578 8.5508 3.5312zm-23.848 6.8672h-4.4609c0.34766-4.1289 1.8672-8.0039 4.5273-11.148l3.2227 3.2188c-1.8398 2.3086-2.9688 5.0234-3.2891 7.9297zm0 3.3672c0.31641 2.918 1.4453 5.6367 3.2891 7.9297l-3.2188 3.2148c-2.6641-3.1484-4.1875-7.0234-4.5312-11.145zm16.984 13.602c2.9297-0.31641 5.6484-1.4414 7.9375-3.2773l3.1641 3.1641c-3.1445 2.6719-6.9648 4.3359-11.102 4.6797v-4.5703zm13.527-2.4492-3.207-3.207c1.8516-2.293 2.9805-5.0195 3.2969-7.9453h4.5234c-0.33984 4.1289-1.9414 7.9922-4.6172 11.148zm4.6172-14.52h-4.5273c-0.32031-2.9102-1.4492-5.6289-3.2969-7.9414l3.2109-3.2109c2.668 3.1562 4.2656 7.0195 4.6133 11.152zm-7.0391-13.488-3.1641 3.1641c-2.2891-1.8398-5.0117-2.9609-7.9414-3.2812v-4.5703c4.1172 0.34375 7.9414 2.0078 11.105 4.6836z"/>
 <path d="m63.219 39.852v3.3672c4.8828 0 9.3594 1.7734 12.828 4.707l-3.2109 3.2109c-2.6484-2.1289-5.9648-3.4531-9.6172-3.4531v3.3672c6.6641 0 12.086 5.418 12.086 12.086 0 6.6641-5.4219 12.086-12.086 12.086s-12.086-5.4219-12.086-12.086h-3.3672c0 3.6523 1.3281 6.9727 3.457 9.6211l-3.2109 3.2109c-2.9297-3.4688-4.7109-7.9453-4.7109-12.832h-3.3672c0 12.836 10.445 23.285 23.285 23.285 12.836 0 23.285-10.445 23.285-23.285 0-12.836-10.445-23.285-23.285-23.285zm12 13.664 3.2109-3.2109c2.5898 3.0664 4.2656 6.918 4.6211 11.145h-4.543c-0.33203-2.9922-1.4922-5.707-3.2891-7.9336zm3.2891 11.305h4.543c-0.35547 4.2266-2.0312 8.0781-4.6211 11.145l-3.207-3.207c1.793-2.2305 2.957-4.9453 3.2852-7.9375zm-5.6641 10.316 3.207 3.207c-3.0664 2.5898-6.918 4.2656-11.145 4.6211v-4.543c2.9922-0.33203 5.707-1.4922 7.9375-3.2852zm-11.305 3.2852v4.543c-4.2266-0.35547-8.0781-2.0312-11.145-4.6172l3.2109-3.2109c2.2305 1.7891 4.9453 2.957 7.9336 3.2852z"/>
</svg>