<svg xmlns="http://www.w3.org/2000/svg" version="1.1" viewBox="-5.0 -10.0 110.0 135.0">
 <path d="m68.086 16.762h-36.172c-3.9727 0.003906-7.7812 1.5859-10.59 4.3945-2.8086 2.8086-4.3906 6.6172-4.3945 10.594v36.168c0.003906 3.9727 1.5859 7.7812 4.3945 10.594 2.8086 2.8086 6.6172 4.3867 10.59 4.3906h36.172c3.9727-0.003906 7.7812-1.582 10.59-4.3906 2.8086-2.8125 4.3906-6.6211 4.3945-10.594v-36.172 0.003906c-0.003906-3.9727-1.5859-7.7852-4.3945-10.594-2.8086-2.8086-6.6172-4.3906-10.59-4.3945zm10.875 51.156c0 6.0078-4.8711 10.875-10.875 10.875h-36.172c-6.0039 0-10.875-4.8672-10.875-10.875v-36.172 0.003906c0-2.8867 1.1445-5.6523 3.1875-7.6914 2.0391-2.0391 4.8047-3.1875 7.6875-3.1875h36.172c2.8828 0 5.6484 1.1484 7.6875 3.1875 2.043 2.0391 3.1875 4.8047 3.1875 7.6914z"/>
 <path d="m75.254 30.598c0.63672 3.9141-2.0234 7.6055-5.9375 8.2383-3.9141 0.63672-7.6055-2.0234-8.2383-5.9375-0.63672-3.9141 2.0234-7.6055 5.9375-8.2383 3.9141-0.63672 7.6016 2.0234 8.2383 5.9375"/>
 <path d="m57.18 49.875c0 3.9648-3.2148 7.1797-7.1797 7.1797s-7.1797-3.2148-7.1797-7.1797c0-3.9688 3.2148-7.1836 7.1797-7.1836s7.1797 3.2148 7.1797 7.1836"/>
 <path d="m39.102 67.957c0 3.9688-3.2148 7.1836-7.1797 7.1836s-7.1836-3.2148-7.1836-7.1836c0-3.9648 3.2188-7.1797 7.1836-7.1797s7.1797 3.2148 7.1797 7.1797"/>
</svg>