<svg xmlns="http://www.w3.org/2000/svg" version="1.1" viewBox="-5.0 -10.0 110.0 135.0">
 <path d="m66.191 17.816h-36.168c-3.9727 0.007813-7.7812 1.5859-10.594 4.3945-2.8086 2.8086-4.3867 6.6211-4.3945 10.594v36.168c0.007813 3.9727 1.5859 7.7852 4.3945 10.594 2.8125 2.8086 6.6211 4.3906 10.594 4.3945h36.168c3.9766-0.003907 7.7852-1.5859 10.594-4.3945s4.3906-6.6211 4.3945-10.594v-36.168c-0.003907-3.9727-1.5859-7.7852-4.3945-10.594-2.8086-2.8086-6.6172-4.3867-10.594-4.3945zm10.879 51.156c0 6.0078-4.8711 10.875-10.879 10.875h-36.168c-6.0078 0-10.875-4.8672-10.875-10.875v-36.168c0-2.8867 1.1445-5.6523 3.1836-7.6914 2.0391-2.0391 4.8047-3.1836 7.6914-3.1836h36.168c2.8867 0 5.6523 1.1445 7.6914 3.1836 2.0391 2.0391 3.1875 4.8047 3.1875 7.6914z"/>
 <path d="m37.203 69.055c0 3.9648-3.2148 7.1797-7.1797 7.1797-3.9688 0-7.1836-3.2148-7.1836-7.1797 0-3.9648 3.2148-7.1797 7.1836-7.1797 3.9648 0 7.1797 3.2148 7.1797 7.1797"/>
 <path d="m73.453 32.805c0 3.9648-3.2148 7.1797-7.1797 7.1797-3.9648 0-7.1797-3.2148-7.1797-7.1797 0-3.9688 3.2148-7.1836 7.1797-7.1836 3.9648 0 7.1797 3.2148 7.1797 7.1836"/>
</svg>