<svg xmlns="http://www.w3.org/2000/svg" version="1.1" viewBox="-5.0 -10.0 110.0 135.0">
 <path d="m62.5 28.125c-7.5469 0-14.469 3.8281-18.516 10.234-0.15625 0.25-0.23438 0.53125-0.23438 0.82812v21.625c0 0.29688 0.078125 0.57812 0.23438 0.82812 4.0312 6.4062 10.953 10.234 18.516 10.234 12.062 0 21.875-9.8125 21.875-21.875s-9.8125-21.875-21.875-21.875zm0 40.625c-6.3281 0-12.141-3.125-15.625-8.4062v-20.703c3.4844-5.2656 9.2969-8.4062 15.625-8.4062 10.344 0 18.75 8.4062 18.75 18.75s-8.4062 18.75-18.75 18.75z"/>
 <path d="m73.438 15.625h-56.25c-0.85938 0-1.5625-0.70312-1.5625-1.5625v-3.125c0-4.3125 3.5-7.8125 7.8125-7.8125h31.25c0.85938 0 1.5625 0.70312 1.5625 1.5625s-0.70312 1.5625-1.5625 1.5625h-31.25c-2.5781 0-4.6875 2.1094-4.6875 4.6875v1.5625h53.125v-1.5625c0-2.5781-2.1094-4.6875-4.6875-4.6875h-6.25c-0.85938 0-1.5625-0.70312-1.5625-1.5625s0.70312-1.5625 1.5625-1.5625h6.25c4.3125 0 7.8125 3.5 7.8125 7.8125v3.125c0 0.85938-0.70312 1.5625-1.5625 1.5625z"/>
 <path d="m17.188 35.938c-0.85938 0-1.5625-0.70312-1.5625-1.5625v-20.312c0-0.85938 0.70312-1.5625 1.5625-1.5625h56.25c0.85938 0 1.5625 0.70312 1.5625 1.5625v11.75c0 0.85938-0.70312 1.5625-1.5625 1.5625s-1.5625-0.70312-1.5625-1.5625v-10.188h-53.125v18.75c0 0.85938-0.70312 1.5625-1.5625 1.5625z"/>
 <path d="m73.438 84.375h-56.25c-0.85938 0-1.5625-0.70312-1.5625-1.5625v-42.188c0-0.85938 0.70312-1.5625 1.5625-1.5625s1.5625 0.70312 1.5625 1.5625v40.625h53.125v-7.0625c0-0.85938 0.70312-1.5625 1.5625-1.5625s1.5625 0.70312 1.5625 1.5625v8.625c0 0.85938-0.70312 1.5625-1.5625 1.5625z"/>
 <path d="m67.188 96.875h-6.25c-0.85938 0-1.5625-0.70312-1.5625-1.5625s0.70312-1.5625 1.5625-1.5625h6.25c2.5781 0 4.6875-2.1094 4.6875-4.6875v-4.6875h-53.125v4.6875c0 2.5781 2.1094 4.6875 4.6875 4.6875h31.25c0.85938 0 1.5625 0.70312 1.5625 1.5625s-0.70312 1.5625-1.5625 1.5625h-31.25c-4.3125 0-7.8125-3.5-7.8125-7.8125v-6.25c0-0.85938 0.70312-1.5625 1.5625-1.5625h56.25c0.85938 0 1.5625 0.70312 1.5625 1.5625v6.25c0 4.3125-3.5 7.8125-7.8125 7.8125z"/>
 <path d="m67.188 48.438h-3.125v-6.25h3.125c1.7188 0 3.125 1.4062 3.125 3.125 0 0.85938 0.70312 1.5625 1.5625 1.5625s1.5625-0.70312 1.5625-1.5625c0-3.4531-2.7969-6.25-6.25-6.25h-3.125v-3.125c0-0.85938-0.70312-1.5625-1.5625-1.5625s-1.5625 0.70312-1.5625 1.5625v3.125h-3.125c-3.4531 0-6.25 2.7969-6.25 6.25s2.7969 6.25 6.25 6.25h3.125v6.25h-3.125c-1.7188 0-3.125-1.4062-3.125-3.125 0-0.85938-0.70312-1.5625-1.5625-1.5625s-1.5625 0.70312-1.5625 1.5625c0 3.4531 2.7969 6.25 6.25 6.25h3.125v3.125c0 0.85938 0.70312 1.5625 1.5625 1.5625s1.5625-0.70312 1.5625-1.5625v-3.125h3.125c3.4531 0 6.25-2.7969 6.25-6.25s-2.7969-6.25-6.25-6.25zm-9.375 0c-1.7188 0-3.125-1.4062-3.125-3.125s1.4062-3.125 3.125-3.125h3.125v6.25zm9.375 9.375h-3.125v-6.25h3.125c1.7188 0 3.125 1.4062 3.125 3.125s-1.4062 3.125-3.125 3.125z"/>
 <path d="m45.312 75c-0.85938 0-1.5625-0.70312-1.5625-1.5625v-46.875c0-0.85938 0.70312-1.5625 1.5625-1.5625s1.5625 0.70312 1.5625 1.5625v46.875c0 0.85938-0.70312 1.5625-1.5625 1.5625z"/>
 <path d="m48.438 10.938h-6.25c-0.85938 0-1.5625-0.70312-1.5625-1.5625s0.70312-1.5625 1.5625-1.5625h6.25c0.85938 0 1.5625 0.70312 1.5625 1.5625s-0.70312 1.5625-1.5625 1.5625z"/>
 <path d="m45.312 92.188c-1.7188 0-3.125-1.4062-3.125-3.125s1.4062-3.125 3.125-3.125 3.125 1.4062 3.125 3.125-1.4062 3.125-3.125 3.125zm0-3.125z"/>
</svg>