<svg xmlns="http://www.w3.org/2000/svg" version="1.1" viewBox="-5.0 -10.0 110.0 135.0">
 <path d="m30.305 31.84c-1.1055 0-2-0.89453-2-2 0-1.1055 0.89453-2 2-2h25.387c1.1055 0 2 0.89453 2 2 0 1.1055-0.89453 2-2 2zm0 10.961c-1.1055 0-2-0.89453-2-2s0.89453-2 2-2h25.387c1.1055 0 2 0.89453 2 2s-0.89453 2-2 2zm0 10.961c-1.1055 0-2-0.89453-2-2s0.89453-2 2-2h25.387c1.1055 0 2 0.89453 2 2s-0.89453 2-2 2zm0 10.961c-1.1055 0-2-0.89453-2-2 0-1.1055 0.89453-2 2-2h25.387c1.1055 0 2 0.89453 2 2 0 1.1055-0.89453 2-2 2zm36.633-47.156 0.003906-0.10938c0.054688-2.2773 0.85547-4.3789 2.168-6.0625h-42.617c-2.043 0-3.8984 0.83594-5.25 2.1836-1.3477 1.3477-2.1836 3.207-2.1836 5.25v52.91h33.262c1.1055 0 2 0.89453 2 2v8.5625c0 1.7383 0.70703 3.3164 1.8477 4.4531 1.1445 1.1445 2.7227 1.8555 4.4648 1.8555 1.7383 0 3.3164-0.70703 4.4531-1.8477 1.1445-1.1445 1.8555-2.7227 1.8555-4.4648v-17.957l-0.47656 0.015625c-2.3789 4.1719-4.1055 8.5508-5.1914 12.645-0.27734 1.0664-1.3711 1.6992-2.4375 1.4219-1.0664-0.27734-1.6992-1.3711-1.4219-2.4375 1.1992-4.5078 3.1211-9.3438 5.7852-13.941-0.89453-4.4805-0.5625-8.8281 0.71094-12.77 0.72266-2.2383 1.7539-4.3438 3.0312-6.2656v-25.449zm4 0.13672v6.5625h12.621v-6.5625c0-1.7383-0.70703-3.3164-1.8477-4.4531-1.1445-1.1445-2.7227-1.8555-4.4648-1.8555-1.7383 0-3.3164 0.70703-4.4531 1.8477-1.1445 1.1523-1.8555 2.7305-1.8555 4.4648zm0 10.559v10.055l0.078125-0.070312c3.2383-2.9727 7.2305-5.1328 11.605-6.1367 4.2617-0.98438 8.8828-0.875 13.531 0.62891 0.89453 0.28906 1.4453 1.1484 1.3789 2.0469-0.625 8.4102-4.4688 15.859-10.262 21.176-4.4727 4.1055-10.109 6.9375-16.328 7.9766v18.367c0 2.8281-1.1602 5.4062-3.0273 7.2734l-0.011718 0.011719c-1.8672 1.8672-4.4414 3.0195-7.2695 3.0195h-47.727c-2.8047 0-5.3594-1.125-7.2461-2.9492l-0.125-0.11719c-1.8906-1.8906-3.0625-4.5-3.0625-7.3711s1.1719-5.4844 3.0625-7.3711c1.8906-1.8906 4.5-3.0625 7.3711-3.0625h2.1602v-52.914c0-3.1484 1.2852-6.0078 3.3555-8.0742 2.0703-2.0703 4.9297-3.3555 8.0742-3.3555h50.758c2.8242 0 5.3984 1.1562 7.2734 3.0195l0.007812 0.007813c1.8711 1.8711 3.0312 4.4492 3.0312 7.2773v8.5625c0 1.1055-0.89453 2-2 2zm-0.29688 16.402-0.13672 0.19531c-1.1953 1.7188-2.1484 3.6133-2.8008 5.6367-0.64062 1.9805-0.99609 4.0859-1.0156 6.2656 1.7148-2.2812 3.6484-4.4492 5.793-6.4062 0.80859-0.74219 2.0703-0.68359 2.8125 0.125 0.74219 0.80859 0.68359 2.0703-0.125 2.8125-2.2695 2.0703-4.2734 4.4023-6.0312 6.875 5.8945-0.73438 11.25-3.3086 15.434-7.1484 4.6992-4.3125 7.9336-10.227 8.8203-16.934-3.4023-0.83594-6.7578-0.80859-9.875-0.09375-3.6914 0.84766-7.0547 2.6719-9.7969 5.1836-1.1445 1.0508-2.1758 2.2188-3.0781 3.4844zm-20.32 31.07h-37.418c-1.7656 0-3.3789 0.72656-4.543 1.8906-1.168 1.168-1.8906 2.7773-1.8906 4.5469 0 1.7656 0.72656 3.3789 1.8906 4.5469l0.089844 0.097656c1.1523 1.1094 2.7227 1.793 4.4531 1.793h39.594c-1.3633-1.75-2.1797-3.9414-2.1797-6.3125v-6.5625zm34.105-32.891c1.0273-0.39453 2.1797 0.11328 2.5781 1.1406 0.39453 1.0273-0.11328 2.1797-1.1406 2.5781-0.97656 0.38281-1.9648 0.82422-2.9453 1.3281-1.0234 0.51953-1.9727 1.0664-2.8555 1.6289-0.92578 0.58984-2.1602 0.31641-2.75-0.60938-0.58984-0.92578-0.31641-2.1602 0.60938-2.75 1.0586-0.67969 2.125-1.293 3.1836-1.832 1.0391-0.52734 2.1445-1.0273 3.3203-1.4805z"/>
</svg>