<svg xmlns="http://www.w3.org/2000/svg" data-name="Layer 1" viewBox="0 0 95 118.75" x="0px" y="0px"><path d="M94,37.637a2.245,2.245,0,0,0-1.15-1.991l-1.233-.712,1.233-.712a2.3,2.3,0,0,0,0-3.983L61.05,11.878a2.25,2.25,0,0,0-2.3,0L2.15,44.557a2.3,2.3,0,0,0,0,3.983l1.233.712-1.233.712a2.3,2.3,0,0,0,0,3.983l1.233.712-1.233.712a2.3,2.3,0,0,0,0,3.983l1.233.712-1.233.712a2.3,2.3,0,0,0,0,3.983l31.8,18.36a2.244,2.244,0,0,0,2.3,0l56.6-32.677a2.3,2.3,0,0,0,0-3.984l-1.233-.712,1.233-.712a2.3,2.3,0,0,0,0-3.983l-1.233-.712,1.233-.712A2.248,2.248,0,0,0,94,37.637ZM26.085,33.721l2.8,1.616L15.2,43.24a1.291,1.291,0,0,0,0,2.236c.605.351.981.788.98,1.141,0,.334-.337.728-.9,1.054a1.291,1.291,0,0,0,0,2.237l15.3,8.837a1.3,1.3,0,0,0,1.292,0,7.166,7.166,0,0,1,6.375.044,1.293,1.293,0,0,0,1.292,0l14.982-8.65,2.8,1.615L35.1,64.581,3.867,46.548ZM47.5,48.271a13.5,13.5,0,0,0,3.148-.369l1.289.745L38.85,56.2a10.068,10.068,0,0,0-7.578-.043l-13.167-7.6a3.309,3.309,0,0,0,.654-1.94,3.383,3.383,0,0,0-.716-2.04l13.424-7.751L36.51,39.74C36.74,44.475,41.58,48.271,47.5,48.271Zm-7.925-6.762,7.192,4.153C43.44,45.446,40.662,43.777,39.575,41.509ZM58.61,67.229,35.1,80.8,3.867,62.77l2.1-1.212L33.95,77.714a2.244,2.244,0,0,0,2.3,0L58.61,64.805Zm0-5.407L35.1,75.4,3.867,57.362l2.1-1.212L33.95,72.307a2.244,2.244,0,0,0,2.3,0L58.61,59.4Zm0-5.407L35.1,69.988,3.867,51.955l2.1-1.212L33.95,66.9a2.244,2.244,0,0,0,2.3,0L58.61,53.991ZM28.668,32.229l10.108-5.836L70.713,44.832,59.942,50.285ZM76.955,34.2l-9.744,5.626L46.74,28.008l9.409-5.433a10.063,10.063,0,0,0,7.587.043L76.9,30.22a3.3,3.3,0,0,0-.663,1.945A3.364,3.364,0,0,0,76.955,34.2Zm-4.821,25.22L61.193,65.738V52.547l10.941-5.539Zm2.583-1.491V55.506L89.034,47.24l2.1,1.212Zm0-5.407V50.1l14.317-8.266,2.1,1.213Zm0-5.408V44.907a1.26,1.26,0,0,0-.018-.2l14.335-8.277,2.1,1.212Zm-2.124-4.18-2.8-1.616L79.8,35.539a1.291,1.291,0,0,0,0-2.237c-.605-.349-.98-.784-.979-1.134,0-.332.341-.726.912-1.054a1.292,1.292,0,0,0,0-2.239L64.427,20.034a1.291,1.291,0,0,0-1.292,0,7.162,7.162,0,0,1-6.381-.044,1.293,1.293,0,0,0-1.293,0l-11.3,6.528-2.8-1.615L59.9,14.2,91.133,32.23ZM67.14,28.048a1.293,1.293,0,0,1-.472,1.765l-6.722,3.881a1.292,1.292,0,1,1-1.292-2.237l6.722-3.882A1.291,1.291,0,0,1,67.14,28.048ZM36.819,45.558a1.292,1.292,0,0,1-.473,1.764L29.624,51.2a1.278,1.278,0,0,1-.644.174,1.292,1.292,0,0,1-.648-2.411l6.722-3.881A1.292,1.292,0,0,1,36.819,45.558Z"/></svg>