<svg xmlns="http://www.w3.org/2000/svg" version="1.1" viewBox="-5.0 -10.0 110.0 135.0">
 <path d="m50 44.203c4.125 0 8.0859 1.6406 11.004 4.5586 2.918 2.918 4.5547 6.875 4.5547 11.004 0 4.125-1.6367 8.082-4.5547 11-2.918 2.918-6.875 4.5586-11.004 4.5586-4.125 0-8.0859-1.6367-11.004-4.5547-2.918-2.918-4.5547-6.8789-4.5547-11.004 0-4.1289 1.6367-8.0859 4.5547-11.004 2.918-2.918 6.875-4.5586 11.004-4.5586zm-38.398-4.9922h4.957v41.102h-4.957c-0.86328 0-1.5625 0.69922-1.5625 1.5625s0.69922 1.5625 1.5625 1.5625h76.797c0.86328 0 1.5625-0.69922 1.5625-1.5625s-0.69922-1.5625-1.5625-1.5625h-4.957v-41.102h4.9609-0.003906c0.85937 0 1.5586-0.69922 1.5586-1.5586s-0.69922-1.5547-1.5586-1.5547l-63.758-0.007812-13.043 0.007812h0.003906c-0.85937 0-1.5586 0.69531-1.5586 1.5547s0.69922 1.5586 1.5586 1.5586zm62.195 0h-47.59v41.102h47.586v-41.102zm-54.113 41.102v-41.098h3.3984v41.098zm57.234 0v-41.098h3.3984v41.098zm-26.918-73.434-39.121 22.691h78.242zm-45.703 22.902 44.902-26.043c0.48438-0.28906 1.0898-0.29297 1.582-0.011719l44.828 26c0.65234 0.32031 0.99609 1.0469 0.83203 1.7539-0.16406 0.71094-0.79297 1.2109-1.5195 1.2109l-89.844 0.003906v-0.003906c-1.582 0-2.1562-2.1094-0.78125-2.9062zm92.188 58.617v6.5234c0 0.41406-0.16406 0.80859-0.45703 1.1016-0.29297 0.29297-0.69141 0.46094-1.1055 0.46094h-89.844c-0.86328 0-1.5625-0.69922-1.5625-1.5625v-6.5234c0-0.86328 0.69922-1.5625 1.5625-1.5625h89.844c0.41406 0 0.8125 0.16406 1.1055 0.45703 0.29297 0.29297 0.45703 0.69141 0.45703 1.1055zm-3.125 4.9609v-3.3984h-86.719v3.3984zm-37.957-36.875c0-2.2695-1.7031-4.0547-3.8398-4.6328v-1.3047c0-0.86328-0.69922-1.5625-1.5625-1.5625s-1.5625 0.69922-1.5625 1.5625v1.3047c-2.1367 0.57813-3.8398 2.3633-3.8398 4.6328 0 2.8164 2.5781 4.8438 5.4023 4.8438 1.9258 0 3.0195 1.7266 1.7031 2.8516-1.4141 1.207-3.9805 0.40234-3.9805-1.1328 0-0.86328-0.70312-1.5625-1.5625-1.5625-0.86328 0-1.5625 0.69922-1.5625 1.5625 0 2.2695 1.7031 4.0547 3.8398 4.6328v1.3047c0 0.86328 0.69922 1.5625 1.5625 1.5625s1.5625-0.69922 1.5625-1.5625v-1.3047c2.1367-0.57813 3.8398-2.3633 3.8398-4.6328 0-2.8164-2.5781-4.8438-5.4023-4.8438-1.9258 0-3.0195-1.7266-1.7031-2.8516 1.4141-1.207 3.9805-0.40234 3.9805 1.1328 0 0.86328 0.69922 1.5625 1.5625 1.5625 0.86328 0 1.5625-0.69922 1.5625-1.5625zm-5.4023-9.1562c-5.0312 0-9.5625 3.0312-11.488 7.6758-1.9258 4.6484-0.86328 9.9961 2.6953 13.555 3.5547 3.5547 8.9023 4.6211 13.551 2.6953 4.6484-1.9258 7.6758-6.457 7.6758-11.488 0-3.2969-1.3086-6.4609-3.6406-8.793-2.332-2.332-5.4961-3.6445-8.793-3.6445z" fill-rule="evenodd"/>
</svg>