<svg xmlns="http://www.w3.org/2000/svg" version="1.1" viewBox="-5.0 -10.0 110.0 135.0">
 <path d="m36.973 55.059h-7.9023c-0.73828 0-1.3398-0.60156-1.3398-1.3398v-20.062l-3.9805 3.2422c-0.15625 0.125-0.26562 0.27344-0.33984 0.4375-0.085937 0.1875-0.13281 0.41797-0.14844 0.67578-0.12891 2.0273-0.33203 4.1445-0.53516 6.2422-0.625 6.4375-1.2344 12.715 0.46484 17.578l8.5352 24.48h20.289v-18.23c0-0.56641-0.050781-1.0859-0.16016-1.5859-0.10938-0.50391-0.27734-0.99609-0.51172-1.5039l-4.7422-10.305c-0.050781-0.10938-0.09375-0.21484-0.12891-0.32422-0.10938-0.19531-0.17188-0.41797-0.17188-0.65234 0-0.050782 0.003907-0.097657 0.007813-0.14453-0.003906-0.078125-0.007813-0.15625-0.007813-0.23438v-8.9648c0-0.91016-0.375-1.7383-0.97656-2.3398-0.60156-0.60156-1.4297-0.97656-2.3398-0.97656s-1.7383 0.375-2.3398 0.97656c-0.60156 0.60156-0.97656 1.4297-0.97656 2.3398v17.816c0 0.73828-0.60156 1.3398-1.3398 1.3398s-1.3398-0.60156-1.3398-1.3398l-0.011719-7.125zm0-4.6445v1.9688h-6.5664v-7.1172c1.2305 0.19141 2.3672 0.64062 3.3633 1.293 1.3867 0.91406 2.4961 2.2227 3.1641 3.7734 0.011718 0.027344 0.027344 0.054688 0.039062 0.082031zm-6.5625-7.8516v-27.871h38.582v27.867c-2.5703 0.30469-4.8711 1.4766-6.6094 3.2148-1.7383 1.7383-2.9102 4.0391-3.2148 6.6094h-10.203v-8.0078c0-1.6484-0.67578-3.1484-1.7617-4.2344s-2.5859-1.7617-4.2344-1.7617-3.1484 0.67578-4.2344 1.7617-1.7617 2.5859-1.7617 4.2344v1.3633c-0.53125-0.52344-1.1133-0.99609-1.7383-1.4102-1.4219-0.93359-3.0625-1.5547-4.8242-1.7656zm38.582 2.7031c-1.8281 0.28906-3.4648 1.1523-4.7148 2.4023s-2.1172 2.8867-2.4023 4.7148h7.1172zm-19.293-25.98c2.7969 0 5.332 1.1328 7.168 2.9688 1.8359 1.8359 2.9688 4.3672 2.9688 7.168s-1.1328 5.332-2.9688 7.168c-1.8359 1.8359-4.3672 2.9688-7.168 2.9688s-5.332-1.1328-7.168-2.9688c-1.8359-1.8359-2.9688-4.3672-2.9688-7.168s1.1328-5.332 2.9688-7.168c1.8359-1.8359 4.3711-2.9688 7.168-2.9688zm5.2734 4.8594c1.3516 1.3477 2.1836 3.2148 2.1836 5.2734 0 2.0586-0.83594 3.9219-2.1836 5.2734-1.3477 1.3477-3.2148 2.1836-5.2734 2.1836-2.0586 0-3.9258-0.83594-5.2734-2.1836-1.3477-1.3477-2.1836-3.2148-2.1836-5.2734 0-2.0586 0.83594-3.9219 2.1836-5.2734 1.3477-1.3477 3.2148-2.1836 5.2734-2.1836 2.0586 0 3.9258 0.83594 5.2734 2.1836zm-3.9336 11.066c0 0.73828-0.59766 1.3398-1.3398 1.3398-0.73828 0-1.3398-0.60156-1.3398-1.3398v-0.44531c-0.21094-0.066406-0.41406-0.14453-0.60547-0.23438-0.625-0.29688-1.1523-0.74219-1.5117-1.2852-0.41016-0.61328-0.24609-1.4414 0.36719-1.8516 0.61328-0.41016 1.4414-0.24609 1.8516 0.36719 0.089843 0.13672 0.24609 0.25781 0.44531 0.35156 0.22656 0.10547 0.49609 0.16797 0.79297 0.16797 0.42969 0 0.80078-0.12109 1.0508-0.32422 0.16406-0.12891 0.26562-0.28516 0.26562-0.44141 0-0.15234-0.10156-0.30859-0.26562-0.4375-0.25391-0.19922-0.62109-0.32031-1.0508-0.32031-1.0391 0-1.9961-0.34766-2.707-0.91016-0.79688-0.63281-1.2891-1.5234-1.2891-2.5312 0-1.0078 0.49219-1.9023 1.2891-2.5312 0.39062-0.30859 0.85547-0.55078 1.3672-0.70703v-0.44922c0-0.73828 0.60156-1.3398 1.3398-1.3398s1.3398 0.59766 1.3398 1.3398v0.44922c0.15625 0.046875 0.30859 0.10156 0.45703 0.16797 0.58203 0.25 1.0859 0.625 1.4648 1.0859 0.46875 0.57031 0.38672 1.4102-0.18359 1.8789-0.57031 0.46875-1.4102 0.38672-1.8789-0.18359-0.10156-0.125-0.26172-0.23828-0.46094-0.32422-0.21484-0.089844-0.46484-0.14453-0.73828-0.14453-0.42969 0-0.80078 0.12109-1.0508 0.32031-0.16406 0.12891-0.26563 0.28516-0.26563 0.4375s0.10156 0.30859 0.26563 0.44141c0.25391 0.19922 0.62109 0.32031 1.0508 0.32031 1.0391 0 1.9961 0.34766 2.707 0.91016 0.79688 0.62891 1.2891 1.5234 1.2891 2.5312 0 1.0078-0.49219 1.9023-1.2891 2.5312-0.39062 0.30859-0.85547 0.55078-1.3672 0.70703zm-31.055-20.516c-0.73828 0-1.3398-0.60156-1.3398-1.3398s0.60156-1.3398 1.3398-1.3398h59.434c0.73828 0 1.3398 0.60156 1.3398 1.3398s-0.60156 1.3398-1.3398 1.3398h-7.7461v4.2305h12.652c0.98047 0 1.8711-0.40234 2.5195-1.0469 0.64844-0.64844 1.0508-1.5391 1.0508-2.5195l-0.003906-5.9883c0-0.98047-0.40234-1.8711-1.0508-2.5195-0.64844-0.64844-1.5391-1.0508-2.5195-1.0508l-68.645 0.003907c-0.98047 0-1.8711 0.40234-2.5195 1.0508-0.64844 0.64844-1.0508 1.5391-1.0508 2.5195v5.9883c0 0.98047 0.40234 1.8711 1.0508 2.5195 0.64844 0.64844 1.5391 1.0469 2.5195 1.0469h12.055v-4.2305zm7.7461 6.9062h-12.055c-1.7188 0-3.2812-0.70312-4.4102-1.832-1.1328-1.1328-1.832-2.6914-1.832-4.4102l-0.003906-5.9883c0-1.7188 0.70312-3.2812 1.832-4.4102 1.1328-1.1328 2.6953-1.8359 4.4141-1.8359h68.648c1.7188 0 3.2812 0.70312 4.4102 1.832 1.1328 1.1328 1.832 2.6914 1.832 4.4102v5.9883c0 1.7188-0.70312 3.2812-1.832 4.4102-1.1328 1.1328-2.6914 1.832-4.4102 1.832l-12.656 0.003906v32.121c0 0.73828-0.60156 1.3398-1.3398 1.3398h-9.9023l-10.727-0.003906 4.0625 8.8203c0.32031 0.69141 0.55078 1.3672 0.69922 2.0586 0.15234 0.69531 0.22266 1.3984 0.22266 2.1523v27.441c0 0.73828-0.60156 1.3398-1.3398 1.3398l-22.57 0.003906c-0.73828 0-1.3398-0.60156-1.3398-1.3398v-7.6602l-8.7695-25.152c-1.8867-5.418-1.2539-11.977-0.59766-18.711 0.19531-2.0234 0.39453-4.0625 0.52734-6.1562 0.035156-0.56641 0.16016-1.1133 0.39062-1.6172 0.24219-0.53125 0.59766-1.0039 1.0859-1.4023l5.6641-4.6172zm24.277 67.398h-19.895v5.1953h19.895z" fill-rule="evenodd"/>
</svg>